<svg xmlns="http://www.w3.org/2000/svg" viewBox="0 0 400 380" fill="none">
  <!-- Swoosh 1 -->
  <path d="M 132.51,114.57 L 135.49,110.67 L 138.69,106.90 L 142.13,103.29 L 145.80,99.85 L 149.70,96.64 L 153.82,93.66 L 158.14,90.96 L 162.66,88.57 L 167.34,86.49 L 172.17,84.76 L 177.13,83.40 L 182.17,82.40 L 187.27,81.79 L 192.40,81.56 L 197.53,81.71 L 202.62,82.24 L 207.66,83.12 L 212.61,84.35 L 217.44,85.91 L 222.14,87.76 L 226.69,89.89 L 231.08,92.27 L 235.30,94.86 L 239.33,97.65 L 218.73,148.64 L 216.50,148.18 L 214.20,148.05 L 211.88,148.23 L 209.56,148.68 L 207.30,149.34 L 205.11,150.16 L 203.01,151.06 L 201.00,151.97 L 199.08,152.82 L 197.22,153.55 L 195.40,154.12 L 193.59,154.50 L 191.74,154.70 L 189.83,154.72 L 187.84,154.60 L 185.75,154.39 L 183.56,154.14 L 181.29,153.94 L 178.95,153.83 L 176.59,153.90 L 174.25,154.19 L 171.98,154.74 L 169.84,155.57 L 167.86,156.70 Z" fill="#1B2E5E"/>
  <!-- Swoosh 2 -->
  <path d="M 302.71,173.17 L 304.74,177.63 L 306.57,182.23 L 308.15,186.96 L 309.45,191.82 L 310.46,196.77 L 311.16,201.80 L 311.51,206.88 L 311.51,212.00 L 311.14,217.11 L 310.40,222.18 L 309.28,227.20 L 307.79,232.11 L 305.94,236.91 L 303.73,241.55 L 301.19,246.00 L 298.33,250.26 L 295.19,254.29 L 291.78,258.08 L 288.14,261.62 L 284.29,264.90 L 280.27,267.91 L 276.11,270.67 L 271.84,273.18 L 267.49,275.43 L 232.14,233.30 L 233.59,231.55 L 234.79,229.58 L 235.72,227.45 L 236.41,225.19 L 236.89,222.88 L 237.19,220.56 L 237.38,218.28 L 237.52,216.09 L 237.68,213.99 L 237.90,212.01 L 238.25,210.13 L 238.77,208.35 L 239.46,206.63 L 240.34,204.93 L 241.38,203.23 L 242.55,201.49 L 243.79,199.67 L 245.04,197.75 L 246.23,195.74 L 247.28,193.62 L 248.12,191.42 L 248.70,189.16 L 248.97,186.88 L 248.91,184.60 Z" fill="#1B2E5E"/>
  <!-- Swoosh 3 -->
  <path d="M 171.06,295.93 L 166.16,295.64 L 161.25,295.09 L 156.32,294.26 L 151.43,293.14 L 146.58,291.70 L 141.81,289.95 L 137.16,287.88 L 132.64,285.47 L 128.31,282.75 L 124.17,279.71 L 120.27,276.37 L 116.63,272.75 L 113.26,268.86 L 110.21,264.74 L 107.46,260.40 L 105.05,255.88 L 102.97,251.21 L 101.22,246.42 L 99.80,241.54 L 98.71,236.61 L 97.93,231.65 L 97.45,226.68 L 97.25,221.73 L 97.29,216.83 L 151.09,205.40 L 151.96,207.50 L 153.13,209.48 L 154.58,211.31 L 156.25,212.97 L 158.07,214.48 L 159.97,215.84 L 161.89,217.08 L 163.77,218.23 L 165.54,219.35 L 167.19,220.48 L 168.68,221.67 L 170.01,222.96 L 171.21,224.38 L 172.29,225.95 L 173.31,227.67 L 174.30,229.52 L 175.32,231.48 L 176.42,233.48 L 177.64,235.47 L 179.02,237.39 L 180.56,239.17 L 182.29,240.74 L 184.18,242.05 L 186.22,243.06 Z" fill="#1B2E5E"/>

  <!-- Orbital arc top -->
  <path d="M 309.41,150.80 A 118 53 -22 0 1 102.08,252.23" stroke="#1B2E5E" stroke-width="8" stroke-linecap="round" fill="none"/>
  <!-- Orbital arc bottom -->
  <path d="M 90.59,239.20 A 118 53 -22 0 1 297.92,137.77" stroke="#1B2E5E" stroke-width="8" stroke-linecap="round" fill="none"/>

  <!-- Arrow 1 -->
  <path d="M 97.11,248.45 L 104.46,261.93 L 112.07,251.90 Z" fill="#1B2E5E"/>
  <!-- Arrow 2 -->
  <path d="M 302.89,141.55 L 295.54,128.07 L 287.93,138.10 Z" fill="#1B2E5E"/>

  <!-- Gear (on top of swooshes) -->
  <path d="M 193.29,167.82 L 196.77,161.15 L 200.00,151.00 L 203.23,161.15 L 206.71,167.82 L 210.55,169.06 L 217.28,165.72 L 225.86,159.40 L 222.50,169.51 L 221.41,176.95 L 223.78,180.22 L 231.19,181.47 L 241.85,181.40 L 233.19,187.61 L 227.93,192.98 L 227.93,197.02 L 233.19,202.39 L 241.85,208.60 L 231.19,208.53 L 223.78,209.78 L 221.41,213.05 L 222.50,220.49 L 225.86,230.60 L 217.28,224.28 L 210.55,220.94 L 206.71,222.18 L 203.23,228.85 L 200.00,239.00 L 196.77,228.85 L 193.29,222.18 L 189.45,220.94 L 182.72,224.28 L 174.14,230.60 L 177.50,220.49 L 178.59,213.05 L 176.22,209.78 L 168.81,208.53 L 158.15,208.60 L 166.81,202.39 L 172.07,197.02 L 172.07,192.98 L 166.81,187.61 L 158.15,181.40 L 168.81,181.47 L 176.22,180.22 L 178.59,176.95 L 177.50,169.51 L 174.14,159.40 L 182.72,165.72 L 189.45,169.06 Z M 213.00,195.00 L 212.75,197.54 L 212.01,199.97 L 210.81,202.22 L 209.19,204.19 L 207.22,205.81 L 204.97,207.01 L 202.54,207.75 L 200.00,208.00 L 197.46,207.75 L 195.03,207.01 L 192.78,205.81 L 190.81,204.19 L 189.19,202.22 L 187.99,199.97 L 187.25,197.54 L 187.00,195.00 L 187.25,192.46 L 187.99,190.03 L 189.19,187.78 L 190.81,185.81 L 192.78,184.19 L 195.03,182.99 L 197.46,182.25 L 200.00,182.00 L 202.54,182.25 L 204.97,182.99 L 207.22,184.19 L 209.19,185.81 L 210.81,187.78 L 212.01,190.03 L 212.75,192.46 Z" fill="#1B2E5E" fill-rule="evenodd"/>

  <!-- Company name -->
  <text x="200" y="310" text-anchor="middle"
    font-family="'Helvetica Neue',Arial,sans-serif"
    font-weight="800" font-size="26" letter-spacing="1.5"
    fill="#1B2E5E">JAP&#211;N COMPACTO</text>

  <!-- Tagline -->
  <text x="200" y="338" text-anchor="middle"
    font-family="'Helvetica Neue',Arial,sans-serif"
    font-weight="400" font-size="11.5" letter-spacing="2.2"
    fill="#1B2E5E">MAQUINARIA GLOBAL &#183; IMPORTACI&#211;N Y EXPORTACI&#211;N</text>
</svg>